# xmcd CD database file
#
# Track frame offsets:
#	150
#	22172
#	36875
#	57890
#	78387
#	90100
#	108090
#	121562
#	140437
#	157920
#
# Disc length: 2458 seconds
#
# Revision: 1
# Processed by: cddbd v1.5.2PL0 Copyright (c) Steve Scherf et al.
# Submitted via: CDex 1.70beta2
#
DISCID=6a09980a
DTITLE=Yas - Kaz - 海道
DYEAR=1993
DGENRE=New Age
TTITLE0=海道を行く (Part I)
TTITLE1=砂の鏡
TTITLE2=貝の光
TTITLE3=明けもどろ
TTITLE4=与那国(ハイ・ドナン)
TTITLE5=綿津見に寄せて
TTITLE6=青,深く
TTITLE7=夕凪の賦
TTITLE8=流水
TTITLE9=海道を行く (Part II)
EXTD=YEAR: 1993
EXTT0=
EXTT1=
EXTT2=
EXTT3=
EXTT4=
EXTT5=
EXTT6=
EXTT7=
EXTT8=
EXTT9=
PLAYORDER=
